<svg width="26px" height="91px" viewBox="0 0 26 91" version="1.1" xmlns="http://www.w3.org/2000/svg" xmlns:xlink="http://www.w3.org/1999/xlink">
    <path stroke="none" stroke-width="1" fill="none" fill-rule="evenodd" d="M22.6553047,13.277 C24.9043047,11.038 11.8673047,11.447 16.2663047,9.708 C19.9053047,8.258 15.1863047,6.879 13.4573047,6.449 L13.4573047,6.289 C13.4573047,2.88 13.2073047,0.12 12.9073047,0.01 C12.8973047,0 12.8973047,0 12.8873047,0 C12.5773047,0 12.3173047,2.809 12.3173047,6.289 L12.3173047,6.449 C10.5873047,6.879 5.86830465,8.259 9.50830465,9.708 C13.9073047,11.448 0.870304654,11.038 3.11930465,13.277 C3.11930465,13.277 -4.51869535,14.767 4.10930465,15.926 C4.10930465,15.926 -1.85969535,17.926 7.42830465,18.915 C7.42830465,18.915 9.25830465,31.372 9.25830465,32.362 L9.25830465,49.918 L9.25830465,50.288 L9.16830465,51.008 L4.44930465,90.46 L21.3253047,90.46 L16.6063047,51.009 L16.5163047,50.289 L16.5163047,49.919 L16.5163047,32.363 C16.5163047,31.373 18.3463047,18.916 18.3463047,18.916 C27.6343047,17.926 21.6653047,15.927 21.6653047,15.927 C30.2933047,14.767 22.6553047,13.277 22.6553047,13.277 L22.6553047,13.277 L22.6553047,13.277 Z M8.97830465,19.116 L10.8483047,19.196 L10.8083047,31.773 L8.97830465,19.116 L8.97830465,19.116 Z M10.8273047,88 L7.09830465,88 L8.33830465,79.042 L10.8273047,79.042 L10.8273047,88 L10.8273047,88 Z M10.7773047,71.474 L8.90730465,71.514 L10.8773047,50.899 L10.7773047,71.474 L10.7773047,71.474 Z M18.7963047,88 L15.0673047,88 L15.0673047,79.042 L17.5563047,79.042 L18.7963047,88 L18.7963047,88 Z M16.7963047,71.514 L14.9263047,71.474 L14.9563047,50.889 L16.7963047,71.514 L16.7963047,71.514 Z M14.8973047,31.763 L14.9873047,19.186 L16.8573047,19.126 L14.8973047,31.763 L14.8973047,31.763 Z" id="space-needle" sketch:type="MSShapeGroup"></path>
</svg>
